<?xml version="1.0" encoding="UTF-8"?>
<svg version="1.1" xmlns="http://www.w3.org/2000/svg" width="524" height="372">
<path d="M0 0 C3.84733994 0.31335418 7.69443934 0.62957347 11.54150391 0.94628906 C13.16633446 1.07857407 13.16633446 1.07857407 14.82398987 1.21353149 C61.61335675 5.07733288 112.00836914 17.56304084 151.3984375 44.23828125 C153.84990031 45.98512182 153.84990031 45.98512182 156.078125 47.0234375 C158.55249256 48.28073809 160.57857657 49.90063434 162.75 51.625 C163.54921875 52.25664063 164.3484375 52.88828125 165.171875 53.5390625 C165.77515625 54.02117187 166.3784375 54.50328125 167 55 C171.63077505 51.9846116 176.07567941 48.92432059 180 45 C182.4018547 43.0630204 184.0352238 41.98825873 187 41 C187.99 40.01 187.99 40.01 189 39 C190.85576376 37.92443722 192.73363989 36.88665773 194.625 35.875 C195.62789062 35.33617187 196.63078125 34.79734375 197.6640625 34.2421875 C198.43492187 33.83226562 199.20578125 33.42234375 200 33 C200 32.34 200 31.68 200 31 C200.54019775 30.82911865 201.08039551 30.6582373 201.63696289 30.48217773 C207.37369703 28.62456272 212.90099331 26.44552168 218.4375 24.0625 C220.10259704 23.35353796 221.76795925 22.6451984 223.43359375 21.9375 C224.2210498 21.60234375 225.00850586 21.2671875 225.81982422 20.921875 C232.77636093 17.98034279 239.61383825 15.31141592 246.9375 13.4375 C247.97777344 13.16808594 249.01804687 12.89867187 250.08984375 12.62109375 C253 12 253 12 257 12 C257.33 11.34 257.66 10.68 258 10 C260.31 10 262.62 10 265 10 C265.33 9.34 265.66 8.68 266 8 C267.849967 7.72067862 269.7035838 7.45762139 271.56494141 7.26855469 C274.14271934 6.98425995 276.6749868 6.57406676 279.23046875 6.1328125 C290.99769537 4.13351678 302.75039501 2.47604714 314.625 1.25 C315.85114014 1.12254395 317.07728027 0.99508789 318.34057617 0.86376953 C323.96721394 0.30583994 329.32086743 0 335 0 C335 78.87 335 157.74 335 239 C321.47 239.99 307.94 240.98 294 242 C285.25362605 243.16102309 276.64802367 244.35793301 268 246 C267.03578125 246.17756836 266.0715625 246.35513672 265.078125 246.53808594 C243.31409947 250.61884072 221.53557766 256.9678314 202.28515625 268.140625 C199 270 199 270 196 271 C193.63699585 272.29733561 191.31489113 273.62161507 189 275 C188.33299072 275.39429199 187.66598145 275.78858398 186.97875977 276.19482422 C181.60813883 279.45001903 177.05092972 283.14178159 172.46484375 287.4453125 C170 289 170 289 166.92578125 288.94140625 C163.86777566 287.95745519 162.49222271 287.05968338 160.25 284.8125 C155.40292206 280.28234638 149.93212603 276.88351839 143.953125 274.01953125 C142 273 142 273 140.14990234 271.578125 C130.63838154 264.59624101 118.12076716 260.0962423 107 256.375 C105.89857666 256.00411255 105.89857666 256.00411255 104.77490234 255.62573242 C101.09318366 254.45318038 97.86985177 253.71278444 94 254 C93.67 253.34 93.34 252.68 93 252 C90.65389953 251.16729378 90.65389953 251.16729378 87.78515625 250.52734375 C86.70556641 250.26759766 85.62597656 250.00785156 84.51367188 249.74023438 C83.37478516 249.47533203 82.23589844 249.21042969 81.0625 248.9375 C79.40637695 248.5343457 79.40637695 248.5343457 77.71679688 248.12304688 C65.91232707 245.00987761 65.91232707 245.00987761 54 246 C54 245.34 54 244.68 54 244 C45.57423694 242.43691843 37.23461948 241.50327544 28.6875 240.9375 C26.92442505 240.8139917 26.92442505 240.8139917 25.12573242 240.68798828 C21.75085084 240.45289411 18.37554437 240.22534855 15 240 C13.30467212 239.88433974 11.60935759 239.7684836 9.9140625 239.65234375 C6.60982396 239.42771103 3.30518135 239.21038005 0 239 C-0.87103693 234.50071676 -1.12563362 230.24740611 -1.12698364 225.6675415 C-1.12854363 224.95040316 -1.13010362 224.23326482 -1.13171089 223.49439502 C-1.1356859 221.10073437 -1.13254419 218.70713764 -1.12939453 216.31347656 C-1.13075065 214.59078433 -1.13253177 212.86809239 -1.13470459 211.145401 C-1.13926886 206.45865705 -1.1374895 201.77193511 -1.1343255 197.08519077 C-1.13177893 192.12911994 -1.13414745 187.17305089 -1.13571167 182.21697998 C-1.13753415 173.84728666 -1.13513279 165.47760214 -1.13037109 157.10791016 C-1.12559343 148.61474021 -1.12549295 140.12158785 -1.13037109 131.62841797 C-1.18142315 40.70149266 -1.18142315 40.70149266 0 0 Z " fill="#9667BD" transform="translate(96,16)"/>
<path d="M0 0 C0 78.87 0 157.74 0 239 C-13.53 239.99 -27.06 240.98 -41 242 C-49.74637395 243.16102309 -58.35197633 244.35793301 -67 246 C-67.96421875 246.17756836 -68.9284375 246.35513672 -69.921875 246.53808594 C-91.68590053 250.61884072 -113.46442234 256.9678314 -132.71484375 268.140625 C-136 270 -136 270 -139 271 C-141.72174546 272.69839789 -144.41811436 274.4234839 -147.0859375 276.20507812 C-150.53692333 278.41386882 -152.88564595 279.48540132 -157 279 C-155.57173878 274.42288216 -152.97919659 271.5899958 -149.6875 268.25 C-133.13944437 250.8641959 -117.78480853 229.89649567 -110 207 C-110.83660156 207.04640625 -111.67320312 207.0928125 -112.53515625 207.140625 C-127.70154936 207.61090076 -139.90033168 203.18564241 -153 196 C-151.07443364 189.14381674 -148.7527517 182.56747868 -146 176 C-144.03125 176.65625 -144.03125 176.65625 -142.0625 177.3125 C-141.24265625 177.58449219 -140.4228125 177.85648438 -139.578125 178.13671875 C-137.91868322 178.69238031 -136.2621369 179.2568053 -134.609375 179.83203125 C-133.85140625 180.09371094 -133.0934375 180.35539063 -132.3125 180.625 C-131.62800781 180.86476562 -130.94351563 181.10453125 -130.23828125 181.3515625 C-125.11892301 182.83465756 -120.18652408 183.13647197 -114.875 183.125 C-113.07675781 183.12886719 -113.07675781 183.12886719 -111.2421875 183.1328125 C-108.58160401 183.02382474 -106.5328794 182.69291213 -104 182 C-104.57395508 181.78883545 -105.14791016 181.5776709 -105.73925781 181.36010742 C-113.05770422 178.56166463 -119.87363728 175.0538653 -126.75 171.3125 C-127.89799072 170.68964111 -129.04598145 170.06678223 -130.22875977 169.42504883 C-142.68603492 162.60923676 -154.3088313 155.43338415 -165 146 C-165.71800781 145.37738281 -166.43601562 144.75476563 -167.17578125 144.11328125 C-178.2460487 133.85984907 -185.36792183 119.40171773 -186.203125 104.3359375 C-186.4357611 84.67818723 -179.74408766 69.79229133 -166.4375 55.1875 C-163.84339899 52.85946063 -161.21921139 50.57445924 -158.55078125 48.33203125 C-157.31951682 47.27444643 -156.14771463 46.14771463 -155 45 C-152.5981453 43.0630204 -150.9647762 41.98825873 -148 41 C-147.34 40.34 -146.68 39.68 -146 39 C-144.14423624 37.92443722 -142.26636011 36.88665773 -140.375 35.875 C-139.37210937 35.33617187 -138.36921875 34.79734375 -137.3359375 34.2421875 C-136.56507813 33.83226562 -135.79421875 33.42234375 -135 33 C-135 32.34 -135 31.68 -135 31 C-134.45980225 30.82911865 -133.91960449 30.6582373 -133.36303711 30.48217773 C-127.62630297 28.62456272 -122.09900669 26.44552168 -116.5625 24.0625 C-114.89740296 23.35353796 -113.23204075 22.6451984 -111.56640625 21.9375 C-110.7789502 21.60234375 -109.99149414 21.2671875 -109.18017578 20.921875 C-102.22363907 17.98034279 -95.38616175 15.31141592 -88.0625 13.4375 C-87.02222656 13.16808594 -85.98195313 12.89867187 -84.91015625 12.62109375 C-82 12 -82 12 -78 12 C-77.67 11.34 -77.34 10.68 -77 10 C-74.69 10 -72.38 10 -70 10 C-69.67 9.34 -69.34 8.68 -69 8 C-67.150033 7.72067862 -65.2964162 7.45762139 -63.43505859 7.26855469 C-60.85728066 6.98425995 -58.3250132 6.57406676 -55.76953125 6.1328125 C-44.00230463 4.13351678 -32.24960499 2.47604714 -20.375 1.25 C-19.14885986 1.12254395 -17.92271973 0.99508789 -16.65942383 0.86376953 C-11.03278606 0.30583994 -5.67913257 0 0 0 Z " fill="#C496E1" transform="translate(431,16)"/>
<path d="M0 0 C1.91619141 -0.00773437 1.91619141 -0.00773437 3.87109375 -0.015625 C7.5625 0.25 7.5625 0.25 13.5625 2.25 C13.8925 79.14 14.2225 156.03 14.5625 235.25 C22.8125 235.25 31.0625 235.25 39.5625 235.25 C39.5625 235.58 39.5625 235.91 39.5625 236.25 C40.3153125 236.31993164 41.068125 236.38986328 41.84375 236.46191406 C92.40749908 241.23294743 143.90246635 250.76609477 183.79296875 284.51171875 C186.40426706 286.51424492 186.40426706 286.51424492 189.296875 286.140625 C192.10845069 285.0353849 193.50761109 283.43746239 195.5625 281.25 C196.43455078 280.816875 196.43455078 280.816875 197.32421875 280.375 C200.21211833 278.92349026 202.68885832 277.07532339 205.3125 275.1875 C237.13784569 252.89661641 275.3596673 243.36751263 313.5 239 C314.22409058 238.91682526 314.94818115 238.83365051 315.69421387 238.74795532 C329.06330069 237.23699254 342.39389669 236.21567604 355.85508728 236.24017334 C356.59709114 236.2408827 357.33909499 236.24159206 358.10358381 236.24232292 C359.92322341 236.24416491 361.74286197 236.24698447 363.5625 236.25 C363.56111731 234.55203372 363.56111731 234.55203372 363.55970669 232.81976509 C363.53753584 205.31328207 363.5210879 177.8068002 363.51068783 150.30031013 C363.50552513 136.99854253 363.49848293 123.69678307 363.48706055 110.39501953 C363.47711291 98.80515536 363.47064638 87.21529545 363.46841151 75.62542713 C363.46710454 69.48513376 363.46401953 63.3448526 363.45676994 57.20456314 C363.45000848 51.43121517 363.4478833 45.65788449 363.44939232 39.88453293 C363.44911605 37.76002153 363.44711167 35.63550958 363.44329453 33.51100159 C363.43835533 30.62149938 363.43950258 27.7320634 363.44224548 24.84255981 C363.43787622 23.5672854 363.43787622 23.5672854 363.43341869 22.26624787 C363.44837879 16.47824242 363.44837879 16.47824242 364.5625 14.25 C383.13060244 13.49039581 383.13060244 13.49039581 389.5625 18.25 C392.5625 22.1875 392.5625 22.1875 392.5625 25.25 C393.2225 25.58 393.8825 25.91 394.5625 26.25 C394.2325 26.58 393.9025 26.91 393.5625 27.25 C393.47686796 28.68802011 393.46111295 30.13027113 393.47348022 31.57078552 C393.47907455 32.50324097 393.48466888 33.43569641 393.49043274 34.39640808 C393.50180771 35.42760269 393.51318268 36.4587973 393.52490234 37.52124023 C393.53290359 38.60082001 393.54090485 39.68039978 393.54914856 40.79269409 C393.57715629 44.38138965 393.61258568 47.96996859 393.6484375 51.55859375 C393.67019119 54.0410181 393.69164136 56.52344513 393.71279907 59.00587463 C393.76422989 64.88609462 393.82086717 70.76624947 393.87932169 76.64640337 C393.92551072 81.34081567 393.96665088 86.03525284 394.00488281 90.72973633 C394.05753064 97.18886517 394.11494612 103.64793124 394.17650223 110.10698128 C394.19946563 112.57542693 394.22096698 115.04388661 394.24100876 117.51235771 C394.26969519 120.95809258 394.30464515 124.40370728 394.34130859 127.84936523 C394.3486351 128.87853561 394.35596161 129.90770599 394.36351013 130.96806335 C394.37474411 131.90333862 394.38597809 132.83861389 394.39755249 133.80223083 C394.40530386 134.6176406 394.41305523 135.43305037 394.42104149 136.27316952 C394.44137916 138.32628547 394.44137916 138.32628547 395.5625 140.25 C394.9025 140.25 394.2425 140.25 393.5625 140.25 C393.5625 150.15 393.5625 160.05 393.5625 170.25 C394.2225 170.25 394.8825 170.25 395.5625 170.25 C395.5625 170.91 395.5625 171.57 395.5625 172.25 C394.9025 172.25 394.2425 172.25 393.5625 172.25 C393.5625 177.2 393.5625 182.15 393.5625 187.25 C394.2225 187.58 394.8825 187.91 395.5625 188.25 C394.9025 188.25 394.2425 188.25 393.5625 188.25 C393.5625 190.23 393.5625 192.21 393.5625 194.25 C394.2225 194.25 394.8825 194.25 395.5625 194.25 C395.5625 194.91 395.5625 195.57 395.5625 196.25 C394.9025 196.25 394.2425 196.25 393.5625 196.25 C393.5625 198.23 393.5625 200.21 393.5625 202.25 C394.2225 202.58 394.8825 202.91 395.5625 203.25 C394.9025 203.25 394.2425 203.25 393.5625 203.25 C393.5625 213.48 393.5625 223.71 393.5625 234.25 C394.2225 234.58 394.8825 234.91 395.5625 235.25 C394.9025 235.25 394.2425 235.25 393.5625 235.25 C393.57297363 235.84949463 393.58344727 236.44898926 393.59423828 237.06665039 C393.63612837 239.8152233 393.66193003 242.56372874 393.6875 245.3125 C393.70425781 246.25544922 393.72101563 247.19839844 393.73828125 248.16992188 C393.82329297 260.36910381 393.82329297 260.36910381 390.1953125 264.9921875 C381.460764 271.55441305 370.53243324 269.34135516 360.12890625 268.84277344 C317.75206241 266.85869859 258.81407732 267.96619322 223.19140625 294.31640625 C211.42951894 302.96742292 199.66515521 310.62667703 184.4375 308.89453125 C180.55664651 308.26199018 176.72057199 307.52468179 172.89453125 306.6171875 C170.41513712 306.04360135 170.41513712 306.04360135 167.5625 307.25 C167.5625 306.59 167.5625 305.93 167.5625 305.25 C166.9025 304.92 166.2425 304.59 165.5625 304.25 C166.2225 303.92 166.8825 303.59 167.5625 303.25 C166.292947 302.60165346 165.02180294 301.95642185 163.75 301.3125 C163.04230469 300.95285156 162.33460938 300.59320313 161.60546875 300.22265625 C159.44439715 299.14269484 159.44439715 299.14269484 156.5625 298.25 C156.15128906 297.48945313 155.74007812 296.72890625 155.31640625 295.9453125 C153.02873759 292.42974151 150.14542628 290.96080669 146.5 289.125 C145.83403809 288.77808105 145.16807617 288.43116211 144.48193359 288.07373047 C139.89015504 285.74517723 135.34792336 283.99839953 130.3203125 282.8203125 C129.74023438 282.63210938 129.16015625 282.44390625 128.5625 282.25 C128.2325 281.59 127.9025 280.93 127.5625 280.25 C125.72254247 279.65981832 125.72254247 279.65981832 123.4375 279.3125 C122.54804688 279.15136719 121.65859375 278.99023438 120.7421875 278.82421875 C119.69289062 278.63472656 118.64359375 278.44523437 117.5625 278.25 C116.25195849 277.98889723 114.94209156 277.72439249 113.6328125 277.45703125 C112.96008301 277.31966553 112.28735352 277.1822998 111.59423828 277.04077148 C110.92376465 276.90356689 110.25329102 276.7663623 109.5625 276.625 C105.09518489 275.63027211 105.09518489 275.63027211 100.5625 275.25 C100.5625 274.59 100.5625 273.93 100.5625 273.25 C99.86125 273.45625 99.16 273.6625 98.4375 273.875 C95.5625 274.25 95.5625 274.25 93.109375 273.37109375 C88.12276992 271.79493113 83.12164217 271.28292275 77.9375 270.6875 C76.82955078 270.55819092 75.72160156 270.42888184 74.58007812 270.2956543 C56.54482773 268.27173871 38.49945652 267.76796773 20.37109375 268.546875 C19.0864624 268.5998877 17.80183105 268.65290039 16.47827148 268.70751953 C13.9186815 268.81699511 11.35952596 268.93730761 8.80102539 269.06982422 C-7.1941184 269.76362074 -7.1941184 269.76362074 -12.9375 265.3125 C-15.88277215 261.26275079 -15.75949458 256.91785774 -16 252.09765625 C-16.0424585 251.26581314 -16.08491699 250.43397003 -16.12866211 249.57691956 C-16.6288515 238.61797881 -16.50870911 227.65454995 -16.4375 216.6875 C-16.41093482 212.4778677 -16.39101539 208.26827776 -16.375 204.05859375 C-16.36670166 203.10045273 -16.35840332 202.14231171 -16.34985352 201.15513611 C-16.34655029 200.27563797 -16.34324707 199.39613983 -16.33984375 198.48999023 C-16.33460693 197.7167894 -16.32937012 196.94358856 -16.32397461 196.1469574 C-16.31811964 194.16127526 -16.31811964 194.16127526 -17.4375 192.25 C-16.7775 192.25 -16.1175 192.25 -15.4375 192.25 C-15.4375 191.59 -15.4375 190.93 -15.4375 190.25 C-16.0975 189.92 -16.7575 189.59 -17.4375 189.25 C-17.28410156 188.54488281 -17.13070312 187.83976563 -16.97265625 187.11328125 C-16.43110971 184.21580964 -16.12263826 181.37378224 -15.875 178.4375 C-15.74931641 176.97376953 -15.74931641 176.97376953 -15.62109375 175.48046875 C-15.56050781 174.74441406 -15.49992187 174.00835937 -15.4375 173.25 C-16.0975 172.92 -16.7575 172.59 -17.4375 172.25 C-16.7775 172.25 -16.1175 172.25 -15.4375 172.25 C-16.0975 170.93 -16.7575 169.61 -17.4375 168.25 C-16.7775 168.25 -16.1175 168.25 -15.4375 168.25 C-15.6025 167.198125 -15.7675 166.14625 -15.9375 165.0625 C-16.58121225 160.07373009 -16.46918388 155.12664685 -16.375 150.10546875 C-16.29850067 147.17467731 -16.29850067 147.17467731 -17.4375 144.25 C-16.7775 144.25 -16.1175 144.25 -15.4375 144.25 C-16.0975 141.61 -16.7575 138.97 -17.4375 136.25 C-16.7775 136.25 -16.1175 136.25 -15.4375 136.25 C-15.4375 132.62 -15.4375 128.99 -15.4375 125.25 C-16.0975 124.92 -16.7575 124.59 -17.4375 124.25 C-16.7775 124.25 -16.1175 124.25 -15.4375 124.25 C-15.5096875 123.64671875 -15.581875 123.0434375 -15.65625 122.421875 C-15.7490625 121.62265625 -15.841875 120.8234375 -15.9375 120 C-16.0303125 119.21109375 -16.123125 118.4221875 -16.21875 117.609375 C-16.48434283 114.74476661 -16.44788866 111.90564007 -16.40234375 109.03125 C-16.39332031 108.2784375 -16.38429687 107.525625 -16.375 106.75 C-16.36339844 105.9971875 -16.35179687 105.244375 -16.33984375 104.46875 C-16.43715623 102.25781055 -16.86444611 100.37977509 -17.4375 98.25 C-17.4375 97.59 -17.4375 96.93 -17.4375 96.25 C-16.7775 96.25 -16.1175 96.25 -15.4375 96.25 C-16.0975 94.93 -16.7575 93.61 -17.4375 92.25 C-16.7775 92.25 -16.1175 92.25 -15.4375 92.25 C-15.60121094 91.67781738 -15.76492187 91.10563477 -15.93359375 90.51611328 C-16.43877626 88.24426054 -16.53738598 86.31375329 -16.5 83.9921875 C-16.49226563 83.20199219 -16.48453125 82.41179687 -16.4765625 81.59765625 C-16.46367188 80.78167969 -16.45078125 79.96570313 -16.4375 79.125 C-16.06680471 73.52162638 -16.06680471 73.52162638 -17.4375 68.25 C-16.7775 68.25 -16.1175 68.25 -15.4375 68.25 C-15.68148781 67.42877403 -15.68148781 67.42877403 -15.93040466 66.59095764 C-16.5075896 63.926438 -16.55733882 61.52160777 -16.55102539 58.79467773 C-16.55094986 57.70352158 -16.55087433 56.61236542 -16.55079651 55.48814392 C-16.54563522 54.31514236 -16.54047394 53.14214081 -16.53515625 51.93359375 C-16.5337413 50.72558609 -16.53232635 49.51757843 -16.53086853 48.27296448 C-16.52527027 44.41111783 -16.51272471 40.54932911 -16.5 36.6875 C-16.49498419 34.08138105 -16.49042142 31.47526119 -16.48632812 28.86914062 C-16.47648783 23.13669699 -16.46227086 17.40428319 -16.44422913 11.67185974 C-16.4392076 9.86457875 -16.4375 8.05728797 -16.4375 6.25 C-11.83707778 0.62726174 -7.02106608 -0.02828224 0 0 Z " fill="#7F55A6" transform="translate(74.4375,27.75)"/>
<path d="M0 0 C-0.6144924 3.54758499 -1.561127 6.67592936 -2.9375 10 C-3.44603516 11.2375 -3.44603516 11.2375 -3.96484375 12.5 C-4.47724609 13.7375 -4.47724609 13.7375 -5 15 C-5.66866076 16.66586764 -6.33590138 18.33230841 -7 20 C-10.79349357 19.39276812 -13.81115089 18.25678677 -17.25 16.5625 C-25.65749669 12.67347078 -33.70416823 11.04879861 -43 12 C-46.74582955 13.40468608 -49.44748108 14.92685399 -52 18 C-52.93936611 21.75746442 -52.7150161 25.38386773 -51.14453125 28.93359375 C-46.58367686 35.2345895 -38.99929118 37.34763703 -32 40 C-6.83753315 49.75968381 -6.83753315 49.75968381 2 60 C2.78125 62.78125 2.78125 62.78125 3 65 C3.66 65 4.32 65 5 65 C9.36139416 73.54106356 9.2918828 83.96391481 7.30859375 93.23046875 C3.27644092 105.19195979 -4.58128054 114.66690861 -15.625 120.8125 C-31.8887793 128.23018671 -51.43189979 128.11609657 -68 122 C-72.79482944 119.90896044 -77.41413041 117.51551552 -82 115 C-80.07443364 108.14381674 -77.7527517 101.56747868 -75 95 C-73.03125 95.65625 -73.03125 95.65625 -71.0625 96.3125 C-70.24265625 96.58449219 -69.4228125 96.85648437 -68.578125 97.13671875 C-66.91868322 97.69238031 -65.2621369 98.2568053 -63.609375 98.83203125 C-62.85140625 99.09371094 -62.0934375 99.35539062 -61.3125 99.625 C-60.62800781 99.86476563 -59.94351562 100.10453125 -59.23828125 100.3515625 C-49.52577615 103.16530743 -37.13806161 103.89955644 -28 99 C-24.08187934 95.74879349 -21.33381934 92.70523723 -20.69921875 87.5625 C-20.69535156 86.716875 -20.69148438 85.87125 -20.6875 85 C-20.67074219 84.154375 -20.65398437 83.30875 -20.63671875 82.4375 C-21.06923895 79.53542899 -22.16962946 78.24087581 -24 76 C-24 75.34 -24 74.68 -24 74 C-24.76183594 73.62101562 -24.76183594 73.62101562 -25.5390625 73.234375 C-27.49617935 72.25271004 -29.44821287 71.26091205 -31.3984375 70.265625 C-32.72347723 69.59280169 -34.04902535 68.92097894 -35.375 68.25 C-36.43303833 67.71439453 -36.43303833 67.71439453 -37.51245117 67.16796875 C-42.04737289 64.89974572 -46.60882896 62.89186327 -51.3125 61 C-63.53013003 55.82350983 -72.78201575 48.34794576 -77.9375 35.875 C-80.35796278 27.23486703 -80.62719776 17.07446319 -76.5 9 C-69.80231062 -1.39781149 -61.67157249 -7.05708002 -49.75 -10.3125 C-32.59657404 -13.45069338 -14.59176335 -9.41404087 0 0 Z " fill="#F7F4F6" transform="translate(360,97)"/>
<path d="M0 0 C1.91619141 -0.00773437 1.91619141 -0.00773437 3.87109375 -0.015625 C7.5625 0.25 7.5625 0.25 13.5625 2.25 C13.8925 79.14 14.2225 156.03 14.5625 235.25 C22.8125 235.25 31.0625 235.25 39.5625 235.25 C39.5625 235.58 39.5625 235.91 39.5625 236.25 C40.7388501 236.36275269 40.7388501 236.36275269 41.93896484 236.4777832 C82.88017198 240.44360668 82.88017198 240.44360668 99.5625 246.25 C99.5625 246.58 99.5625 246.91 99.5625 247.25 C94.02372527 247.4551398 89.16827612 246.90970449 83.76171875 245.6875 C81.44582832 245.1524445 81.44582832 245.1524445 78.5625 245.25 C78.5625 244.59 78.5625 243.93 78.5625 243.25 C77.79164063 243.25 77.02078125 243.25 76.2265625 243.25 C71.33854167 243.25 66.45052083 243.25 61.5625 243.25 C61.5625 242.59 61.5625 241.93 61.5625 241.25 C60.5725 241.58 59.5825 241.91 58.5625 242.25 C56.58203125 242.1640625 56.58203125 242.1640625 54.375 241.875 C53.65957031 241.78476562 52.94414063 241.69453125 52.20703125 241.6015625 C50.16297717 241.3298271 48.12327684 241.02522245 46.0859375 240.70703125 C39.05738158 239.82835892 31.91939545 240.24762754 24.85351562 240.37695312 C23.73267578 240.38791016 22.61183594 240.39886719 21.45703125 240.41015625 C19.93879761 240.43541382 19.93879761 240.43541382 18.38989258 240.46118164 C15.29567486 240.23007048 13.23823832 239.83841259 10.5625 238.25 C9.12232624 233.67027946 9.44107469 228.83928803 9.47589111 224.08908081 C9.47856452 223.16404255 9.48123792 222.23900429 9.48399234 221.28593457 C9.49405594 218.18521499 9.51126207 215.0845751 9.52832031 211.98388672 C9.53678725 209.76144595 9.54473973 207.53900316 9.55221558 205.31655884 C9.56893637 200.53061519 9.58836547 195.74469265 9.60959625 190.95876694 C9.64217488 183.3964476 9.66290309 175.83412561 9.68084717 168.27175903 C9.68393363 166.99606517 9.6870201 165.7203713 9.69020009 164.40602005 C9.69650789 161.79764688 9.70279763 159.18927368 9.70906973 156.58090043 C9.72544952 149.88059043 9.74296815 143.18028421 9.76171875 136.47998047 C9.76453433 135.47158372 9.76453433 135.47158372 9.76740679 134.44281532 C9.79833155 123.53607109 9.84398531 112.6294292 9.89412847 101.72275864 C9.94517248 90.52531414 9.97684257 79.32792086 9.99227214 68.13036168 C10.00166947 61.84297613 10.02034145 55.5559124 10.06058502 49.26864243 C10.09829382 43.36052726 10.11300255 37.45281269 10.10974503 31.54458237 C10.11272746 29.37208114 10.12434733 27.19957272 10.14506912 25.02716827 C10.17203399 22.0699213 10.16848419 19.11426231 10.15704346 16.1569519 C10.17228978 15.28974671 10.18753611 14.42254152 10.20324445 13.52905738 C10.22935043 10.87351894 10.22935043 10.87351894 9.5625 7.25 C5.55001236 3.82588725 2.02075884 3.76875632 -3.05859375 3.98828125 C-6.5065375 4.36761168 -8.08822089 4.5975881 -10.4375 7.25 C-11.68441999 14.23078703 -11.58353945 21.48163985 -11.57121277 28.55436707 C-11.5746111 30.01782648 -11.5746111 30.01782648 -11.57807809 31.51085073 C-11.58435724 34.74707368 -11.5835927 37.98325409 -11.58276367 41.21948242 C-11.58575882 43.55292311 -11.58916217 45.88636331 -11.59294128 48.21980286 C-11.60174563 54.5335395 -11.60411779 60.84726259 -11.60475707 67.16100478 C-11.60546918 71.10782432 -11.60760645 75.05464044 -11.61025429 79.00145912 C-11.61901729 92.06627779 -11.62367548 105.13108796 -11.62292381 118.19590958 C-11.62288386 118.89849331 -11.6228439 119.60107703 -11.62280273 120.32495117 C-11.62276185 121.02839849 -11.62272097 121.7318458 -11.62267885 122.4566097 C-11.62227193 133.87040573 -11.63185691 145.28416884 -11.6459411 156.69795533 C-11.66031166 168.43691337 -11.66721103 180.17585535 -11.66634732 191.9148224 C-11.66609241 198.49781255 -11.66894041 205.08076536 -11.67952538 211.66374779 C-11.68920239 217.85012944 -11.68928822 224.03643797 -11.68200874 230.22282219 C-11.68096267 232.49156552 -11.6833271 234.7603134 -11.6893692 237.02904892 C-11.69708827 240.12831324 -11.69244486 243.22732497 -11.68473816 246.32658386 C-11.68988172 247.22182351 -11.69502529 248.11706315 -11.70032471 249.03943127 C-11.67071084 254.43696033 -10.9485326 259.06287903 -9.4375 264.25 C-3.4975 265.735 -3.4975 265.735 2.5625 267.25 C-2.11948086 269.59099043 -3.50656981 269.24472727 -8.3125 268.01953125 C-11.14343113 266.9943595 -12.67418287 265.67456105 -14.4375 263.25 C-15.67407132 259.54028603 -15.80677177 255.97032991 -16 252.09765625 C-16.0424585 251.26581314 -16.08491699 250.43397003 -16.12866211 249.57691956 C-16.6288515 238.61797881 -16.50870911 227.65454995 -16.4375 216.6875 C-16.41093482 212.4778677 -16.39101539 208.26827776 -16.375 204.05859375 C-16.36670166 203.10045273 -16.35840332 202.14231171 -16.34985352 201.15513611 C-16.34655029 200.27563797 -16.34324707 199.39613983 -16.33984375 198.48999023 C-16.33460693 197.7167894 -16.32937012 196.94358856 -16.32397461 196.1469574 C-16.31811964 194.16127526 -16.31811964 194.16127526 -17.4375 192.25 C-16.7775 192.25 -16.1175 192.25 -15.4375 192.25 C-15.4375 191.59 -15.4375 190.93 -15.4375 190.25 C-16.0975 189.92 -16.7575 189.59 -17.4375 189.25 C-17.28410156 188.54488281 -17.13070312 187.83976563 -16.97265625 187.11328125 C-16.43110971 184.21580964 -16.12263826 181.37378224 -15.875 178.4375 C-15.74931641 176.97376953 -15.74931641 176.97376953 -15.62109375 175.48046875 C-15.56050781 174.74441406 -15.49992187 174.00835937 -15.4375 173.25 C-16.0975 172.92 -16.7575 172.59 -17.4375 172.25 C-16.7775 172.25 -16.1175 172.25 -15.4375 172.25 C-16.0975 170.93 -16.7575 169.61 -17.4375 168.25 C-16.7775 168.25 -16.1175 168.25 -15.4375 168.25 C-15.6025 167.198125 -15.7675 166.14625 -15.9375 165.0625 C-16.58121225 160.07373009 -16.46918388 155.12664685 -16.375 150.10546875 C-16.29850067 147.17467731 -16.29850067 147.17467731 -17.4375 144.25 C-16.7775 144.25 -16.1175 144.25 -15.4375 144.25 C-16.0975 141.61 -16.7575 138.97 -17.4375 136.25 C-16.7775 136.25 -16.1175 136.25 -15.4375 136.25 C-15.4375 132.62 -15.4375 128.99 -15.4375 125.25 C-16.0975 124.92 -16.7575 124.59 -17.4375 124.25 C-16.7775 124.25 -16.1175 124.25 -15.4375 124.25 C-15.5096875 123.64671875 -15.581875 123.0434375 -15.65625 122.421875 C-15.7490625 121.62265625 -15.841875 120.8234375 -15.9375 120 C-16.0303125 119.21109375 -16.123125 118.4221875 -16.21875 117.609375 C-16.48434283 114.74476661 -16.44788866 111.90564007 -16.40234375 109.03125 C-16.39332031 108.2784375 -16.38429687 107.525625 -16.375 106.75 C-16.36339844 105.9971875 -16.35179687 105.244375 -16.33984375 104.46875 C-16.43715623 102.25781055 -16.86444611 100.37977509 -17.4375 98.25 C-17.4375 97.59 -17.4375 96.93 -17.4375 96.25 C-16.7775 96.25 -16.1175 96.25 -15.4375 96.25 C-16.0975 94.93 -16.7575 93.61 -17.4375 92.25 C-16.7775 92.25 -16.1175 92.25 -15.4375 92.25 C-15.60121094 91.67781738 -15.76492187 91.10563477 -15.93359375 90.51611328 C-16.43877626 88.24426054 -16.53738598 86.31375329 -16.5 83.9921875 C-16.49226563 83.20199219 -16.48453125 82.41179687 -16.4765625 81.59765625 C-16.46367188 80.78167969 -16.45078125 79.96570313 -16.4375 79.125 C-16.06680471 73.52162638 -16.06680471 73.52162638 -17.4375 68.25 C-16.7775 68.25 -16.1175 68.25 -15.4375 68.25 C-15.68148781 67.42877403 -15.68148781 67.42877403 -15.93040466 66.59095764 C-16.5075896 63.926438 -16.55733882 61.52160777 -16.55102539 58.79467773 C-16.55094986 57.70352158 -16.55087433 56.61236542 -16.55079651 55.48814392 C-16.54563522 54.31514236 -16.54047394 53.14214081 -16.53515625 51.93359375 C-16.5337413 50.72558609 -16.53232635 49.51757843 -16.53086853 48.27296448 C-16.52527027 44.41111783 -16.51272471 40.54932911 -16.5 36.6875 C-16.49498419 34.08138105 -16.49042142 31.47526119 -16.48632812 28.86914062 C-16.47648783 23.13669699 -16.46227086 17.40428319 -16.44422913 11.67185974 C-16.4392076 9.86457875 -16.4375 8.05728797 -16.4375 6.25 C-11.83707778 0.62726174 -7.02106608 -0.02828224 0 0 Z " fill="#462568" transform="translate(74.4375,27.75)"/>
<path d="M0 0 C2.20805524 -0.0544452 4.41650554 -0.09299283 6.625 -0.125 C7.85476562 -0.14820312 9.08453125 -0.17140625 10.3515625 -0.1953125 C14 0 14 0 20 2 C20.33 78.89 20.66 155.78 21 235 C29.25 235 37.5 235 46 235 C46 235.33 46 235.66 46 236 C47.1763501 236.11275269 47.1763501 236.11275269 48.37646484 236.2277832 C89.31767198 240.19360668 89.31767198 240.19360668 106 246 C106 246.33 106 246.66 106 247 C100.46122527 247.2051398 95.60577612 246.65970449 90.19921875 245.4375 C87.88332832 244.9024445 87.88332832 244.9024445 85 245 C85 244.34 85 243.68 85 243 C84.22914063 243 83.45828125 243 82.6640625 243 C77.77604167 243 72.88802083 243 68 243 C68 242.34 68 241.68 68 241 C67.01 241.33 66.02 241.66 65 242 C63.01953125 241.9140625 63.01953125 241.9140625 60.8125 241.625 C60.09707031 241.53476562 59.38164063 241.44453125 58.64453125 241.3515625 C56.60047717 241.0798271 54.56077684 240.77522245 52.5234375 240.45703125 C45.49488158 239.57835892 38.35689545 239.99762754 31.29101562 240.12695312 C30.17017578 240.13791016 29.04933594 240.14886719 27.89453125 240.16015625 C26.37629761 240.18541382 26.37629761 240.18541382 24.82739258 240.21118164 C21.73317486 239.98007048 19.67573832 239.58841259 17 238 C16.06901353 234.64552884 15.87598894 231.46220553 15.87974548 227.99491882 C15.87837082 227.01200363 15.87699615 226.02908844 15.87557983 225.01638794 C15.87917511 223.94967865 15.88277039 222.88296936 15.88647461 221.78393555 C15.88632858 220.65179123 15.88618256 219.51964691 15.8860321 218.35319519 C15.88672828 214.61435016 15.89450694 210.87555507 15.90234375 207.13671875 C15.90420898 204.54311653 15.90563239 201.94951395 15.90663147 199.35591125 C15.91005836 193.22910598 15.91793838 187.10232129 15.92798096 180.97552377 C15.93916827 173.99851766 15.94465914 167.02151069 15.94967639 160.04449785 C15.9601217 145.6963223 15.97770482 131.34816178 16 117 C16.33 117 16.66 117 17 117 C17.33 79.05 17.66 41.1 18 2 C12.06 1.67 6.12 1.34 0 1 C0 0.67 0 0.34 0 0 Z " fill="#543575" transform="translate(68,28)"/>
<path d="M0 0 C0.33 0 0.66 0 1 0 C0.96744792 1.85546875 0.93489583 3.7109375 0.90234375 5.56640625 C0.95636629 8.14987558 0.95636629 8.14987558 1.53515625 11.26171875 C2.13166569 16.05885769 1.73927074 20.53656802 1.31640625 25.33203125 C1.01396363 29.33755174 1.04606482 33.11430792 1.4609375 37.11328125 C2.17780039 44.05381745 2.14617925 50.96599757 2.125 57.9375 C2.13080078 59.8875293 2.13080078 59.8875293 2.13671875 61.87695312 C2.13542969 63.12283203 2.13414062 64.36871094 2.1328125 65.65234375 C2.13168457 66.77632568 2.13055664 67.90030762 2.12939453 69.05834961 C2 72 2 72 1.42919922 74.27172852 C0.77744685 76.09623038 0.77744685 76.09623038 2 78 C2.09651515 79.84645246 2.12796398 81.69643752 2.12939453 83.54541016 C2.1324913 84.72235947 2.13558807 85.89930878 2.13877869 87.11192322 C2.13680984 88.40787918 2.134841 89.70383514 2.1328125 91.0390625 C2.13395656 92.40951061 2.13543416 93.77995847 2.13722229 95.15040588 C2.14025781 98.86784406 2.13596159 102.58523741 2.12917709 106.30266953 C2.12501184 108.61841545 2.12204446 110.93416045 2.11929321 113.24990845 C2.10419919 124.50006527 2.06097569 135.75000252 2 147 C1.99574257 147.79270546 1.99148514 148.58541092 1.98709869 149.40213776 C1.93273894 159.25039186 1.85288116 169.09803025 1.73553467 178.94573975 C1.70209488 181.77388492 1.67530847 184.60197394 1.65411377 187.43023682 C1.62393313 191.36393465 1.56932709 195.29707167 1.51171875 199.23046875 C1.50531876 200.40114395 1.49891876 201.57181915 1.49232483 202.77796936 C1.47254074 203.83890305 1.45275665 204.89983673 1.43237305 205.99291992 C1.42126999 206.91731369 1.41016693 207.84170746 1.39872742 208.79411316 C1.26714737 209.52205582 1.13556732 210.24999847 1 211 C-2.08894884 213.05929922 -2.72317994 213.2498494 -6.2109375 213.23046875 C-7.03819336 213.22917969 -7.86544922 213.22789062 -8.71777344 213.2265625 C-9.5946582 213.21367187 -10.47154297 213.20078125 -11.375 213.1875 C-12.26735352 213.18105469 -13.15970703 213.17460937 -14.07910156 213.16796875 C-21.08554867 213.08717368 -28.02734029 212.71253457 -35 212 C-35 211.67 -35 211.34 -35 211 C-32.52133674 210.79835656 -30.04300154 210.6139009 -27.5625 210.4375 C-26.89412109 210.38142578 -26.22574219 210.32535156 -25.53710938 210.26757812 C-20.04066736 209.89451645 -14.65202175 210.14332325 -9.16381836 210.49243164 C-8.37726616 210.54067329 -7.59071396 210.58891495 -6.78032684 210.63861847 C-4.85342769 210.75708644 -2.92669577 210.87826915 -1 211 C-1.00092179 209.91863801 -1.00184359 208.83727602 -1.00279331 207.72314548 C-1.02495969 181.45210312 -1.04140996 155.18106197 -1.05181217 128.91001225 C-1.05697587 116.20571117 -1.06401997 103.50141626 -1.07543945 90.79711914 C-1.08538404 79.72841575 -1.09185289 68.65971682 -1.09408849 57.59100908 C-1.09539599 51.72629172 -1.09848425 45.86158713 -1.10573006 39.99687386 C-1.11248673 34.48371472 -1.11461769 28.97057369 -1.11310768 23.45741081 C-1.11338417 21.42762021 -1.11539138 19.39782903 -1.11920547 17.36804199 C-1.12413721 14.60956083 -1.12300022 11.8511492 -1.12025452 9.09266663 C-1.12316736 8.27848033 -1.1260802 7.46429402 -1.12908131 6.62543541 C-1.11412121 1.11412121 -1.11412121 1.11412121 0 0 Z " fill="#A174C6" transform="translate(441,54)"/>
<path d="M0 0 C3.02107902 -0.0543251 6.04116528 -0.09382927 9.0625 -0.125 C9.91005859 -0.14175781 10.75761719 -0.15851563 11.63085938 -0.17578125 C16.82338662 -0.21587799 21.01829492 0.37540747 26 2 C28.90495668 2.71923031 31.82718155 3.35768393 34.75 4 C35.53624756 4.17515137 36.32249512 4.35030273 37.13256836 4.53076172 C42.43996052 5.69953171 47.75217877 6.70580444 53.12890625 7.5078125 C53.74636719 7.67023438 54.36382812 7.83265625 55 8 C55.495 8.99 55.495 8.99 56 10 C57.91320649 10.20415955 59.82656534 10.40700733 61.74072266 10.60205078 C65.58514371 11.27920729 68.78145639 13.09595489 72.1875 14.9375 C73.5550844 15.65667185 74.92355409 16.37416313 76.29296875 17.08984375 C77.24502197 17.59040283 77.24502197 17.59040283 78.21630859 18.10107422 C80.42498046 19.21417712 82.68191344 20.14028246 85 21 C85 21.66 85 22.32 85 23 C85.84111328 23.39058594 85.84111328 23.39058594 86.69921875 23.7890625 C89.24462729 25.1287512 91.47992269 26.69260566 93.8125 28.375 C100.98599716 33.42262866 107.47722299 36.7364053 116 39 C113.60065174 40.50863893 112.38654756 41.04335684 109.52734375 40.72265625 C108.24537109 40.39587891 108.24537109 40.39587891 106.9375 40.0625 C102.97126005 39.03999766 102.97126005 39.03999766 99 40 C99 39.34 99 38.68 99 38 C98.34 37.67 97.68 37.34 97 37 C97.66 36.67 98.32 36.34 99 36 C97.730447 35.35165346 96.45930294 34.70642185 95.1875 34.0625 C94.47980469 33.70285156 93.77210938 33.34320313 93.04296875 32.97265625 C90.88189715 31.89269484 90.88189715 31.89269484 88 31 C87.58878906 30.23945313 87.17757812 29.47890625 86.75390625 28.6953125 C84.46623759 25.17974151 81.58292628 23.71080669 77.9375 21.875 C77.27153809 21.52808105 76.60557617 21.18116211 75.91943359 20.82373047 C71.32765504 18.49517723 66.78542336 16.74839953 61.7578125 15.5703125 C61.17773438 15.38210938 60.59765625 15.19390625 60 15 C59.505 14.01 59.505 14.01 59 13 C57.16004247 12.40981832 57.16004247 12.40981832 54.875 12.0625 C53.98554688 11.90136719 53.09609375 11.74023438 52.1796875 11.57421875 C51.13039062 11.38472656 50.08109375 11.19523437 49 11 C47.68945849 10.73889723 46.37959156 10.47439249 45.0703125 10.20703125 C44.39758301 10.06966553 43.72485352 9.9322998 43.03173828 9.79077148 C42.36126465 9.65356689 41.69079102 9.5163623 41 9.375 C36.53268489 8.38027211 36.53268489 8.38027211 32 8 C32 7.34 32 6.68 32 6 C31.29875 6.20625 30.5975 6.4125 29.875 6.625 C27 7 27 7 24.2890625 6.0859375 C20.66726254 4.89014131 17.28644211 4.43097715 13.5 4 C8.73093823 3.45717996 4.50688226 2.66921565 0 1 C0 0.67 0 0.34 0 0 Z " fill="#4C2970" transform="translate(143,295)"/>
<path d="M0 0 C0.33 0 0.66 0 1 0 C1 83.49 1 166.98 1 253 C0.67 253 0.34 253 0 253 C-0.9656395 238.46475446 -1.09455883 224.00068577 -1 209.4375 C-0.97343482 205.2278677 -0.95351539 201.01827776 -0.9375 196.80859375 C-0.92920166 195.85045273 -0.92090332 194.89231171 -0.91235352 193.90513611 C-0.90905029 193.02563797 -0.90574707 192.14613983 -0.90234375 191.23999023 C-0.89710693 190.4667894 -0.89187012 189.69358856 -0.88647461 188.8969574 C-0.88061964 186.91127526 -0.88061964 186.91127526 -2 185 C-1.34 185 -0.68 185 0 185 C0 184.34 0 183.68 0 183 C-0.66 182.67 -1.32 182.34 -2 182 C-1.84660156 181.29488281 -1.69320312 180.58976563 -1.53515625 179.86328125 C-0.99360971 176.96580964 -0.68513826 174.12378224 -0.4375 171.1875 C-0.31181641 169.72376953 -0.31181641 169.72376953 -0.18359375 168.23046875 C-0.12300781 167.49441406 -0.06242187 166.75835937 0 166 C-0.66 165.67 -1.32 165.34 -2 165 C-1.34 165 -0.68 165 0 165 C-0.66 163.68 -1.32 162.36 -2 161 C-1.34 161 -0.68 161 0 161 C-0.165 159.948125 -0.33 158.89625 -0.5 157.8125 C-1.14371225 152.82373009 -1.03168388 147.87664685 -0.9375 142.85546875 C-0.86100067 139.92467731 -0.86100067 139.92467731 -2 137 C-1.34 137 -0.68 137 0 137 C-0.66 134.36 -1.32 131.72 -2 129 C-1.34 129 -0.68 129 0 129 C0 125.37 0 121.74 0 118 C-0.66 117.67 -1.32 117.34 -2 117 C-1.34 117 -0.68 117 0 117 C-0.0721875 116.39671875 -0.144375 115.7934375 -0.21875 115.171875 C-0.3115625 114.37265625 -0.404375 113.5734375 -0.5 112.75 C-0.5928125 111.96109375 -0.685625 111.1721875 -0.78125 110.359375 C-1.04684283 107.49476661 -1.01038866 104.65564007 -0.96484375 101.78125 C-0.95582031 101.0284375 -0.94679687 100.275625 -0.9375 99.5 C-0.92589844 98.7471875 -0.91429687 97.994375 -0.90234375 97.21875 C-0.99965623 95.00781055 -1.42694611 93.12977509 -2 91 C-2 90.34 -2 89.68 -2 89 C-1.34 89 -0.68 89 0 89 C-0.66 87.68 -1.32 86.36 -2 85 C-1.34 85 -0.68 85 0 85 C-0.16371094 84.42781738 -0.32742187 83.85563477 -0.49609375 83.26611328 C-1.00127626 80.99426054 -1.09988598 79.06375329 -1.0625 76.7421875 C-1.05476563 75.95199219 -1.04703125 75.16179687 -1.0390625 74.34765625 C-1.02617188 73.53167969 -1.01328125 72.71570313 -1 71.875 C-0.62930471 66.27162638 -0.62930471 66.27162638 -2 61 C-1.34 61 -0.68 61 0 61 C-0.16233124 60.45284332 -0.32466248 59.90568665 -0.49191284 59.34194946 C-1.07059528 56.67460196 -1.12713709 54.25885679 -1.12939453 51.52880859 C-1.13254669 50.43442474 -1.13569885 49.34004089 -1.13894653 48.2124939 C-1.13591019 46.44828598 -1.13591019 46.44828598 -1.1328125 44.6484375 C-1.13376923 43.43805817 -1.13472595 42.22767883 -1.13571167 40.98062134 C-1.13639196 38.4236038 -1.13454817 35.86658453 -1.13037109 33.30957031 C-1.1250115 29.38342439 -1.13032598 25.4573924 -1.13671875 21.53125 C-1.13605812 19.04947891 -1.13477728 16.5677079 -1.1328125 14.0859375 C-1.13483673 12.90575043 -1.13686096 11.72556335 -1.13894653 10.50961304 C-1.13579437 9.42153351 -1.13264221 8.33345398 -1.12939453 7.21240234 C-1.12859894 6.25183929 -1.12780334 5.29127625 -1.12698364 4.30160522 C-1 2 -1 2 0 0 Z " fill="#2A1A50" transform="translate(59,35)"/>
<path d="M0 0 C0.33 0 0.66 0 1 0 C1 76.89 1 153.78 1 233 C0.67 233 0.34 233 0 233 C-0.00634791 232.15516493 -0.00634791 232.15516493 -0.01282406 231.29326248 C-0.11612734 217.58899189 -0.22482614 203.88477325 -0.33933926 190.18059158 C-0.39455351 183.55335408 -0.44797123 176.92611215 -0.49731445 170.29882812 C-0.54497993 163.90568919 -0.59732371 157.51260426 -0.65294075 151.11952972 C-0.67335437 148.67785737 -0.69206909 146.23617021 -0.70907402 143.79447174 C-0.73313984 140.38017923 -0.76319172 136.96598881 -0.79467773 133.55175781 C-0.8004332 132.53755768 -0.80618866 131.52335754 -0.81211853 130.47842407 C-0.82190735 129.54736847 -0.83169617 128.61631287 -0.84178162 127.65704346 C-0.85146044 126.44580748 -0.85146044 126.44580748 -0.8613348 125.21010208 C-0.99885047 123.01832164 -1.45227523 121.11992955 -2 119 C-2.03845443 117.00036972 -2.04544281 114.99948367 -2 113 C-1.67 113 -1.34 113 -1 113 C-0.67 75.71 -0.34 38.42 0 0 Z " fill="#4F3171" transform="translate(86,32)"/>
<path d="M0 0 C29.35948365 4.22598628 61.11823405 16.23159201 83 37 C84.27734375 39.23828125 84.27734375 39.23828125 85 41 C78.48354255 38.82784752 73.78400132 34.78400132 69 30 C68.34 30 67.68 30 67 30 C67 29.34 67 28.68 67 28 C66.28521484 27.72671875 65.57042969 27.4534375 64.83398438 27.171875 C62.00954865 26.00394844 59.35666892 24.67997272 56.65625 23.25 C55.65722656 22.7240625 54.65820312 22.198125 53.62890625 21.65625 C50.5 20 50.5 20 47.37109375 18.34375 C46.37207031 17.8178125 45.37304688 17.291875 44.34375 16.75 C43.43818359 16.27046875 42.53261719 15.7909375 41.59960938 15.296875 C37.22040181 13.11220646 32.70480478 11.52951097 28.0625 10 C27.06347656 9.67 26.06445312 9.34 25.03515625 9 C23.53275391 8.505 23.53275391 8.505 22 8 C20.98808594 7.6596875 19.97617188 7.319375 18.93359375 6.96875 C16.30004956 6.09908428 13.65995126 5.2843446 11 4.5 C7.30833659 3.40142343 3.64486466 2.24692738 0 1 C0 0.67 0 0.34 0 0 Z " fill="#4F2B73" transform="translate(175,275)"/>
<path d="M0 0 C0.99 0.33 1.98 0.66 3 1 C4.997244 1.25088931 6.99969649 1.46116157 9.00390625 1.6484375 C10.21111328 1.76501709 11.41832031 1.88159668 12.66210938 2.00170898 C13.94923828 2.12489502 15.23636719 2.24808105 16.5625 2.375 C32.47999039 3.9716377 47.82666576 5.71882183 63 11 C63 11.33 63 11.66 63 12 C57.46122527 12.2051398 52.60577612 11.65970449 47.19921875 10.4375 C44.88332832 9.9024445 44.88332832 9.9024445 42 10 C42 9.34 42 8.68 42 8 C41.22914063 8 40.45828125 8 39.6640625 8 C34.77604167 8 29.88802083 8 25 8 C25 7.34 25 6.68 25 6 C24.01 6.33 23.02 6.66 22 7 C20.01953125 6.9140625 20.01953125 6.9140625 17.8125 6.625 C17.02617187 6.52574219 16.23984375 6.42648437 15.4296875 6.32421875 C14.62789062 6.21722656 13.82609375 6.11023438 13 6 C11.4792545 5.81178892 9.95842768 5.62423311 8.4375 5.4375 C7.303125 5.293125 6.16875 5.14875 5 5 C5 4.67 5 4.34 5 4 C2.03 3.505 2.03 3.505 -1 3 C-0.67 2.01 -0.34 1.02 0 0 Z " fill="#48246C" transform="translate(111,263)"/>
<path d="M0 0 C1.19363159 0.04616455 1.19363159 0.04616455 2.41137695 0.09326172 C8.14265205 0.39265205 8.14265205 0.39265205 10.375 2.625 C9.52719971 2.61452637 8.67939941 2.60405273 7.8059082 2.59326172 C-10.07934752 2.40321058 -27.72577224 2.73698115 -45.5625 4.1875 C-50.60557026 4.58993952 -55.56752051 4.71071999 -60.625 4.625 C-60.955 3.965 -61.285 3.305 -61.625 2.625 C-41.19204668 -0.19995865 -20.59889131 -0.93255147 0 0 Z " fill="#9D74C0" transform="translate(433.625,293.375)"/>
<path d="M0 0 C3.02107902 -0.0543251 6.04116528 -0.09382927 9.0625 -0.125 C9.91005859 -0.14175781 10.75761719 -0.15851563 11.63085938 -0.17578125 C16.81914534 -0.21584523 21.02077709 0.37912884 26 2 C29.65622023 2.7770925 33.31991199 3.50144932 36.98828125 4.21875 C40 5 40 5 42 7 C42.99 7.66 43.98 8.32 45 9 C40.71 8.67 36.42 8.34 32 8 C32 7.34 32 6.68 32 6 C31.29875 6.20625 30.5975 6.4125 29.875 6.625 C27 7 27 7 24.2890625 6.0859375 C20.66726254 4.89014131 17.28644211 4.43097715 13.5 4 C8.73093823 3.45717996 4.50688226 2.66921565 0 1 C0 0.67 0 0.34 0 0 Z " fill="#5B3885" transform="translate(143,295)"/>
<path d="M0 0 C0.75142273 0.02319305 1.50284546 0.04638611 2.27703857 0.07028198 C9.34796628 0.29772075 16.31657471 0.58958081 23.3125 1.6875 C23.3125 2.0175 23.3125 2.3475 23.3125 2.6875 C-16.32063956 4.08777356 -16.32063956 4.08777356 -35.6875 2.6875 C-35.6875 2.3575 -35.6875 2.0275 -35.6875 1.6875 C-23.75888761 -0.36857137 -12.05428151 -0.38778943 0 0 Z " fill="#421C65" transform="translate(114.6875,292.3125)"/>
<path d="M0 0 C-3.5623677 1.45865666 -7.12491741 2.91686827 -10.6875 4.375 C-11.69490234 4.7875 -12.70230469 5.2 -13.74023438 5.625 C-14.71669922 6.02460938 -15.69316406 6.42421875 -16.69921875 6.8359375 C-17.59471436 7.20251465 -18.49020996 7.5690918 -19.4128418 7.94677734 C-21.93790151 8.97471993 -24.46762064 9.99024117 -27 11 C-25.49282055 6.47846164 -22.05819968 5.05591614 -18 3 C-4.68225542 -2.71608881 -4.68225542 -2.71608881 0 0 Z " fill="#946DB8" transform="translate(327,308)"/>
<path d="M0 0 C0.33 0.66 0.66 1.32 1 2 C0.34 2 -0.32 2 -1 2 C-1 2.66 -1 3.32 -1 4 C-2.093125 3.979375 -3.18625 3.95875 -4.3125 3.9375 C-9.57300359 3.92805565 -14.77169644 4.46179228 -20 5 C-20.33 4.01 -20.66 3.02 -21 2 C-18.81347261 1.66034526 -16.62571975 1.32857523 -14.4375 1 C-13.21933594 0.814375 -12.00117188 0.62875 -10.74609375 0.4375 C-7.12372152 0.01444923 -3.64287954 -0.07501425 0 0 Z " fill="#A074C2" transform="translate(392,267)"/>
<path d="M0 0 C-2.88746874 2.88746874 -6.41751293 3.47716543 -10.25 4.5625 C-11.00152344 4.78357422 -11.75304687 5.00464844 -12.52734375 5.23242188 C-16.66469064 6.42741474 -20.72674338 7.39439516 -25 8 C-25 7.34 -25 6.68 -25 6 C-21.58915232 4.79530432 -18.17056267 3.61429908 -14.75 2.4375 C-13.29787109 1.92413086 -13.29787109 1.92413086 -11.81640625 1.40039062 C-10.88183594 1.08134766 -9.94726562 0.76230469 -8.984375 0.43359375 C-8.12553711 0.13509521 -7.26669922 -0.16340332 -6.38183594 -0.47094727 C-3.83413072 -1.03684284 -2.43684546 -0.85092276 0 0 Z " fill="#976DB6" transform="translate(346,276)"/>
<path d="M0 0 C4.24319537 1.43758532 7.23547015 3.53990863 10.6875 6.375 C11.64011719 7.14585937 12.59273437 7.91671875 13.57421875 8.7109375 C15.77400564 10.78674285 16.91503119 12.22095709 18 15 C10.34588901 12.44862967 4.72179664 7.43409652 0 1 C0 0.67 0 0.34 0 0 Z " fill="#56317A" transform="translate(242,301)"/>
<path d="M0 0 C-0.0625 1.75 -0.0625 1.75 -1 4 C-2.68561561 5.0697176 -4.38240275 6.13087191 -6.15625 7.046875 C-8.1987958 8.06171232 -8.1987958 8.06171232 -10.75 9.8125 C-11.4925 10.204375 -12.235 10.59625 -13 11 C-13.99 10.67 -14.98 10.34 -16 10 C-3.42465753 0 -3.42465753 0 0 0 Z " fill="#8A64AB" transform="translate(292,296)"/>
<path d="M0 0 C3.79228144 0.10952116 7.5835384 0.24023241 11.375 0.375 C12.99535156 0.42140625 12.99535156 0.42140625 14.6484375 0.46875 C16.1953125 0.52675781 16.1953125 0.52675781 17.7734375 0.5859375 C19.20308838 0.63306885 19.20308838 0.63306885 20.66162109 0.68115234 C23 1 23 1 25 3 C17.08 3 9.16 3 1 3 C0.67 2.01 0.34 1.02 0 0 Z " fill="#A57FCB" transform="translate(419,293)"/>
<path d="M0 0 C2.28487244 0.00718513 4.52262435 0.10576055 6.796875 0.3203125 C4.49404246 2.86162608 2.12373707 4.39141545 -0.890625 6.0078125 C-1.69886719 6.44480469 -2.50710938 6.88179688 -3.33984375 7.33203125 C-3.95472656 7.65816406 -4.56960938 7.98429687 -5.203125 8.3203125 C-5.203125 4.25111342 -4.56557229 0.66378888 0 0 Z " fill="#9F77C0" transform="translate(283.203125,286.6796875)"/>
<path d="M0 0 C0.8971875 0.5259375 0.8971875 0.5259375 1.8125 1.0625 C-0.39625121 3.25852066 -2.59744275 5.32330867 -5.1875 7.0625 C-8.125 6.9375 -8.125 6.9375 -10.1875 6.0625 C-4.04886364 -1.73522727 -4.04886364 -1.73522727 0 0 Z " fill="#A374C7" transform="translate(275.1875,294.9375)"/>
<path d="M0 0 C0.99 0.33 1.98 0.66 3 1 C4.6247656 1.21282313 6.25480348 1.38680032 7.88671875 1.53515625 C8.82451172 1.62216797 9.76230469 1.70917969 10.72851562 1.79882812 C11.70498047 1.88583984 12.68144531 1.97285156 13.6875 2.0625 C14.67556641 2.15337891 15.66363281 2.24425781 16.68164062 2.33789062 C19.12082148 2.56177679 21.56025587 2.78235239 24 3 C24 3.33 24 3.66 24 4 C23.06027344 4.09087891 23.06027344 4.09087891 22.1015625 4.18359375 C21.28429687 4.26738281 20.46703125 4.35117187 19.625 4.4375 C18.81289062 4.51871094 18.00078125 4.59992188 17.1640625 4.68359375 C14.95727195 4.89090114 14.95727195 4.89090114 13 6 C10.30434798 5.83219837 7.67594446 5.38844355 5 5 C5 4.67 5 4.34 5 4 C2.03 3.505 2.03 3.505 -1 3 C-0.67 2.01 -0.34 1.02 0 0 Z " fill="#5D3A85" transform="translate(111,263)"/>
<path d="M0 0 C0.73605469 0.40992188 1.47210938 0.81984375 2.23046875 1.2421875 C3.20628906 1.78101563 4.18210938 2.31984375 5.1875 2.875 C6.15042969 3.40867188 7.11335937 3.94234375 8.10546875 4.4921875 C10.69739518 5.8423678 13.26761098 6.97098329 16 8 C15.34 9.32 14.68 10.64 14 12 C12.22891052 10.87540329 10.45813764 9.75030797 8.6875 8.625 C7.20830078 7.68527344 7.20830078 7.68527344 5.69921875 6.7265625 C3.78712071 5.50348387 1.8885966 4.2590644 0 3 C0 2.01 0 1.02 0 0 Z " fill="#865DA8" transform="translate(238,55)"/>
<path d="M0 0 C3.06640625 0.21875 3.06640625 0.21875 6.06640625 3.21875 C-3.50359375 2.88875 -13.07359375 2.55875 -22.93359375 2.21875 C-22.93359375 1.88875 -22.93359375 1.55875 -22.93359375 1.21875 C-19.91287445 1.04975871 -16.89204552 0.88348871 -13.87109375 0.71875 C-13.02353516 0.67105469 -12.17597656 0.62335938 -11.30273438 0.57421875 C-7.53556781 0.37058813 -3.76693707 0.2094821 0 0 Z " fill="#793E9C" transform="translate(141.93359375,293.78125)"/>
<path d="M0 0 C-0.9646842 2.8940526 -1.68794902 3.83997386 -4.4375 5.25 C-9.31599378 6.27705132 -14.03422611 6.15904614 -19 6 C-16.39590003 3.39590003 -14.67632238 3.49060377 -11.0625 3 C-7.15740849 2.46856592 -3.54954659 0 0 0 Z " fill="#9E79BF" transform="translate(464,291)"/>
<path d="M0 0 C3.10398978 -0.08710289 6.20766548 -0.14042309 9.3125 -0.1875 C10.19357422 -0.21263672 11.07464844 -0.23777344 11.98242188 -0.26367188 C13.25375977 -0.27817383 13.25375977 -0.27817383 14.55078125 -0.29296875 C15.72120972 -0.31653442 15.72120972 -0.31653442 16.9152832 -0.34057617 C19.49903853 0.08152696 20.36292167 1.01489942 22 3 C19.4580411 3.05434116 16.91726318 3.0938339 14.375 3.125 C13.66214844 3.14175781 12.94929687 3.15851563 12.21484375 3.17578125 C7.7387836 3.21684602 4.22050722 2.69086567 0 1 C0 0.67 0 0.34 0 0 Z " fill="#401B64" transform="translate(143,295)"/>
<path d="M0 0 C2.62506802 -0.02690844 5.24986173 -0.04679404 7.875 -0.0625 C8.62136719 -0.07087891 9.36773437 -0.07925781 10.13671875 -0.08789062 C15.7734375 -0.11328125 15.7734375 -0.11328125 18 1 C18 1.66 18 2.32 18 3 C16.41058594 2.96519531 16.41058594 2.96519531 14.7890625 2.9296875 C13.4010487 2.91093056 12.0130273 2.89273028 10.625 2.875 C9.92632812 2.85824219 9.22765625 2.84148438 8.5078125 2.82421875 C6.67102514 2.80655733 4.83398037 2.89696739 3 3 C2.34 3.66 1.68 4.32 1 5 C0.67 3.35 0.34 1.7 0 0 Z " fill="#A47CC4" transform="translate(440,42)"/>
<path d="M0 0 C0.93585938 0.07863281 1.87171875 0.15726562 2.8359375 0.23828125 C5.67558593 0.69564759 8.00514675 1.52047446 10.625 2.6875 C8.22565174 4.19613893 7.01154756 4.73085684 4.15234375 4.41015625 C3.29769531 4.19230469 2.44304687 3.97445313 1.5625 3.75 C-2.40373995 2.72749766 -2.40373995 2.72749766 -6.375 3.6875 C-6.375 3.0275 -6.375 2.3675 -6.375 1.6875 C-7.035 1.3575 -7.695 1.0275 -8.375 0.6875 C-5.16543359 -0.38235547 -3.33416167 -0.3060121 0 0 Z " fill="#603F7A" transform="translate(248.375,331.3125)"/>
<path d="M0 0 C0.33 0.66 0.66 1.32 1 2 C-1.26860837 2.5304408 -3.53998489 3.04905434 -5.8125 3.5625 C-7.70935547 3.99755859 -7.70935547 3.99755859 -9.64453125 4.44140625 C-13 5 -13 5 -16 4 C-15 2 -15 2 -13.14453125 1.3671875 C-8.68502511 0.4259852 -4.58835504 -0.23530026 0 0 Z " fill="#9D72BD" transform="translate(370,270)"/>
<path d="M0 0 C-0.99 1.485 -0.99 1.485 -2 3 C-3.32 3 -4.64 3 -6 3 C-6 2.34 -6 1.68 -6 1 C-6.99 1.33 -7.98 1.66 -9 2 C-11.73812607 1.54451823 -14.3201176 0.74685247 -17 0 C-17 -0.33 -17 -0.66 -17 -1 C-10.73960391 -1.93213141 -5.97802937 -2.20927172 0 0 Z " fill="#421D67" transform="translate(142,268)"/>
<path d="M0 0 C0.66 0 1.32 0 2 0 C2 6.6 2 13.2 2 20 C0 19 0 19 -0.6875 17.25 C-1.05743672 14.58645565 -0.57469923 12.61807427 0 10 C0.19762523 6.35626004 0.19762523 6.35626004 -1 3 C-0.67 2.01 -0.34 1.02 0 0 Z " fill="#291263" transform="translate(58,125)"/>
<path d="M0 0 C7.30645606 1.05084393 14.06392339 2.45677191 21 5 C20.01 5.66 19.02 6.32 18 7 C15.73828125 6.2578125 15.73828125 6.2578125 13 5 C10.73523026 4.27251242 8.46401548 3.56485318 6.1875 2.875 C5.02605469 2.52179688 3.86460937 2.16859375 2.66796875 1.8046875 C1.78753906 1.53914063 0.90710938 1.27359375 0 1 C0 0.67 0 0.34 0 0 Z " fill="#3E1965" transform="translate(175,275)"/>
<path d="M0 0 C13.365 0.495 13.365 0.495 27 1 C27 1.33 27 1.66 27 2 C13.635 2.495 13.635 2.495 0 3 C0 2.01 0 1.02 0 0 Z " fill="#783B98" transform="translate(74,294)"/>
<path d="M0 0 C0.66 0.99 1.32 1.98 2 3 C0.75443908 3.81928886 -0.49666635 4.63015186 -1.75 5.4375 C-2.44609375 5.88996094 -3.1421875 6.34242187 -3.859375 6.80859375 C-5.92957014 7.9608009 -7.68696324 8.54676982 -10 9 C-10 7.68 -10 6.36 -10 5 C-9.01 5 -8.02 5 -7 5 C-6.34 4.34 -5.68 3.68 -5 3 C-3.34738161 1.97695052 -1.68208635 0.97383946 0 0 Z " fill="#A47FB9" transform="translate(290,52)"/>
<path d="M0 0 C4.29 2.31 8.58 4.62 13 7 C9.29218328 8.23593891 8.32489747 7.5678132 4.8125 6.0625 C3.91144531 5.68222656 3.01039063 5.30195313 2.08203125 4.91015625 C1.05142578 4.45962891 1.05142578 4.45962891 0 4 C0 2.68 0 1.36 0 0 Z " fill="#512D76" transform="translate(238,325)"/>
<path d="M0 0 C0.33 0 0.66 0 1 0 C1.66 2.64 2.32 5.28 3 8 C8.94 9.485 8.94 9.485 15 11 C11 13 11 13 8.7109375 12.390625 C7.94007812 12.01421875 7.16921875 11.6378125 6.375 11.25 C5.59898438 10.88390625 4.82296875 10.5178125 4.0234375 10.140625 C2 9 2 9 0 7 C-0.125 3.375 -0.125 3.375 0 0 Z " fill="#3F1C62" transform="translate(62,284)"/>
<path d="M0 0 C-1.15374939 3.46124816 -1.87701971 3.88312583 -4.875 5.75 C-5.57367188 6.19859375 -6.27234375 6.6471875 -6.9921875 7.109375 C-9 8 -9 8 -12 7 C-10.71919608 4.43839216 -9.5434419 4.23538607 -7 3 C-6.319375 2.46375 -5.63875 1.9275 -4.9375 1.375 C-3 0 -3 0 0 0 Z " fill="#8C65AD" transform="translate(295,322)"/>
<path d="M0 0 C4.83628305 0.99043705 9.47618873 1.95698846 14 4 C11.03315271 4.9889491 9.48851928 5.07889872 6.4375 4.8125 C5.65246094 4.75707031 4.86742187 4.70164062 4.05859375 4.64453125 C2 4 2 4 0.72265625 1.94921875 C0.48417969 1.30597656 0.24570313 0.66273438 0 0 Z " fill="#59387E" transform="translate(194,279)"/>
<path d="M0 0 C0.66 0.99 1.32 1.98 2 3 C-2.67209049 4.43023178 -7.13103697 5.40380045 -12 6 C-12 5.34 -12 4.68 -12 4 C-10.68 4 -9.36 4 -8 4 C-7.67 3.34 -7.34 2.68 -7 2 C-4.69 2 -2.38 2 0 2 C0 1.34 0 0.68 0 0 Z " fill="#AC88C4" transform="translate(361,24)"/>
<path d="M0 0 C0 0.99 0 1.98 0 3 C-5.445 5.475 -5.445 5.475 -11 8 C-10.67 6.68 -10.34 5.36 -10 4 C-7.71484375 2.734375 -7.71484375 2.734375 -4.9375 1.75 C-4.01839844 1.41484375 -3.09929687 1.0796875 -2.15234375 0.734375 C-1.44207031 0.49203125 -0.73179687 0.2496875 0 0 Z " fill="#AB84C9" transform="translate(312,274)"/>
<path d="M0 0 C3.60244452 0.30878096 4.99345998 0.99447732 7.8125 3.375 C10 6 10 6 10 9 C8.70391053 8.06862408 7.41328368 7.1296434 6.125 6.1875 C5.40570313 5.66542969 4.68640625 5.14335937 3.9453125 4.60546875 C2 3 2 3 0 0 Z " fill="#805B9F" transform="translate(251,295)"/>
<path d="M0 0 C0.99 0.33 1.98 0.66 3 1 C3 1.66 3 2.32 3 3 C4.32 3.33 5.64 3.66 7 4 C5 6 5 6 1.375 6.125 C0.26125 6.08375 -0.8525 6.0425 -2 6 C-1.01 4.68 -0.02 3.36 1 2 C0.67 1.34 0.34 0.68 0 0 Z " fill="#6E4496" transform="translate(258,313)"/>
<path d="M0 0 C0 0.33 0 0.66 0 1 C-3.63 1.33 -7.26 1.66 -11 2 C-11.33 1.01 -11.66 0.02 -12 -1 C-7.31034294 -2.11658501 -4.46236469 -1.80619523 0 0 Z " fill="#9A6FBC" transform="translate(383,270)"/>
<path d="M0 0 C0.69738281 0.05671875 1.39476562 0.1134375 2.11328125 0.171875 C3.82639312 0.31267872 5.53834611 0.46745972 7.25 0.625 C7.25 0.955 7.25 1.285 7.25 1.625 C5.02156512 1.82100577 2.79220107 2.00646569 0.5625 2.1875 C-1.29955078 2.34412109 -1.29955078 2.34412109 -3.19921875 2.50390625 C-6.30835533 2.60993841 -8.75810972 2.39728525 -11.75 1.625 C-7.96332311 -0.93198285 -4.3377666 -0.40999684 0 0 Z " fill="#BC91DA" transform="translate(405.75,254.375)"/>
<path d="M0 0 C1.98 0 3.96 0 6 0 C5.67 0.66 5.34 1.32 5 2 C4.01 2.309375 4.01 2.309375 3 2.625 C0.82949501 3.79365917 0.82949501 3.79365917 0.515625 5.90625 C0.27330851 7.93030541 0.13124383 9.96572061 0 12 C-0.33 12 -0.66 12 -1 12 C-1.02698189 10.37509046 -1.04638757 8.75005367 -1.0625 7.125 C-1.07410156 6.22007813 -1.08570313 5.31515625 -1.09765625 4.3828125 C-1 2 -1 2 0 0 Z " fill="#492573" transform="translate(63,31)"/>
<path d="M0 0 C5.66153846 1.47692308 5.66153846 1.47692308 7.375 4.125 C7.58125 4.74375 7.7875 5.3625 8 6 C7.01 6.495 7.01 6.495 6 7 C6 6.34 6 5.68 6 5 C5.21625 4.71125 4.4325 4.4225 3.625 4.125 C1 3 1 3 -1 1 C-0.67 0.67 -0.34 0.34 0 0 Z " fill="#47236D" transform="translate(236,298)"/>
<path d="M0 0 C1.485 0.99 1.485 0.99 3 2 C3.40571844 6.38175919 3.10920305 9.18494748 1 13 C0.63779734 11.20994059 0.28547531 9.41787943 -0.0625 7.625 C-0.25972656 6.62726562 -0.45695312 5.62953125 -0.66015625 4.6015625 C-1 2 -1 2 0 0 Z " fill="#8560A2" transform="translate(439,42)"/>
<path d="M0 0 C-1.65 1.32 -3.3 2.64 -5 4 C-5.66 3.67 -6.32 3.34 -7 3 C-6.67 2.01 -6.34 1.02 -6 0 C-3 -1 -3 -1 0 0 Z M-8 4 C-6 5 -6 5 -6 5 Z " fill="#8A60B1" transform="translate(274,312)"/>
<path d="M0 0 C1.32 0.33 2.64 0.66 4 1 C1.36 2.98 -1.28 4.96 -4 7 C-4 6.01 -4 5.02 -4 4 C-3.01 3.67 -2.02 3.34 -1 3 C-0.67 2.01 -0.34 1.02 0 0 Z " fill="#9771B5" transform="translate(273,295)"/>
<path d="M0 0 C3.96 0.33 7.92 0.66 12 1 C10.68 1.33 9.36 1.66 8 2 C7.67 2.66 7.34 3.32 7 4 C6.01 4 5.02 4 4 4 C4 3.01 4 2.02 4 1 C2.68 0.67 1.36 0.34 0 0 Z " fill="#613B87" transform="translate(138,267)"/>
<path d="M0 0 C2.4375 0.75 2.4375 0.75 5 2 C5.8125 4.125 5.8125 4.125 6 6 C5.01 6 4.02 6 3 6 C0 2.66666667 0 2.66666667 0 0 Z " fill="#9772B3" transform="translate(459,44)"/>
<path d="M0 0 C-1.5 1.5625 -1.5 1.5625 -4 3 C-6.77437543 2.96823234 -9.25286467 2.50364148 -12 2 C-12 1.67 -12 1.34 -12 1 C-7.93631321 0.22596442 -4.13574827 -0.0984702 0 0 Z M-6 3 C-4 4 -4 4 -4 4 Z " fill="#B38CCE" transform="translate(430,16)"/>
<path d="M0 0 C0.99 0.33 1.98 0.66 3 1 C1.68 2.32 0.36 3.64 -1 5 C-1.33 4.01 -1.66 3.02 -2 2 C-1.34 1.34 -0.68 0.68 0 0 Z M-3 5 C-3 8 -3 8 -3 8 Z " fill="#B085D3" transform="translate(281,287)"/>
<path d="M0 0 C-2.35953094 2.35953094 -3.77895617 2.49141413 -7 3 C-7 2.01 -7 1.02 -7 0 C-3.86650268 -1.04449911 -3.01031744 -0.93423645 0 0 Z " fill="#9F74BF" transform="translate(346,276)"/>
<path d="M0 0 C0.66 0 1.32 0 2 0 C2 3.3 2 6.6 2 10 C1.34 9.67 0.68 9.34 0 9 C-0.85056945 5.44307323 -1.16909807 3.50729422 0 0 Z " fill="#26127A" transform="translate(58,125)"/>
<path d="M0 0 C1.32 0.33 2.64 0.66 4 1 C4 1.66 4 2.32 4 3 C1.36 3.66 -1.28 4.32 -4 5 C-4 4.34 -4 3.68 -4 3 C-2.68 2.34 -1.36 1.68 0 1 C0 0.67 0 0.34 0 0 Z " fill="#AF8DC2" transform="translate(334,31)"/>
<path d="M0 0 C0.66 0.33 1.32 0.66 2 1 C1.67 2.65 1.34 4.3 1 6 C-0.32 6 -1.64 6 -3 6 C-1.125 1.125 -1.125 1.125 0 0 Z " fill="#BB8FDE" transform="translate(277,289)"/>
<path d="M0 0 C0.33 0.99 0.66 1.98 1 3 C-0.32 3.99 -1.64 4.98 -3 6 C-3.66 5.34 -4.32 4.68 -5 4 C-3.36587557 2.29159719 -2.13093906 1.06546953 0 0 Z " fill="#9C7BB1" transform="translate(278,60)"/>
<path d="M0 0 C0 0.99 0 1.98 0 3 C-2.64738916 4.4606285 -3.89448334 5 -7 5 C-7 4.34 -7 3.68 -7 3 C-4.69 2.01 -2.38 1.02 0 0 Z " fill="#A57EB8" transform="translate(308,43)"/>
<path d="M0 0 C3.96 0 7.92 0 12 0 C12 0.33 12 0.66 12 1 C8.04 1 4.08 1 0 1 C0 0.67 0 0.34 0 0 Z " fill="#BABAE1" transform="translate(410,263)"/>
<path d="M0 0 C2.31 0 4.62 0 7 0 C7 0.33 7 0.66 7 1 C4.69 1 2.38 1 0 1 C0 0.67 0 0.34 0 0 Z " fill="#8776BD" transform="translate(415,15)"/>
<path d="M0 0 C1.65 0 3.3 0 5 0 C5 0.33 5 0.66 5 1 C3.35 1 1.7 1 0 1 C0 0.67 0 0.34 0 0 Z " fill="#8585B9" transform="translate(450,40)"/>
<path d="M0 0 C1.65 0 3.3 0 5 0 C5 0.33 5 0.66 5 1 C3.35 1 1.7 1 0 1 C0 0.67 0 0.34 0 0 Z " fill="#8585B9" transform="translate(407,16)"/>
<path d="M0 0 C4 1 4 1 4 1 Z " fill="#3F3F7F" transform="translate(367,300)"/>
<path d="M0 0 C4 1 4 1 4 1 Z " fill="#7F7FBF" transform="translate(398,17)"/>
<path d="M0 0 C3 1 3 1 3 1 Z " fill="#8D8D8D" transform="translate(326,309)"/>
<path d="M0 0 C3 1 3 1 3 1 Z " fill="#7F7FAA" transform="translate(362,301)"/>
<path d="M0 0 C3 1 3 1 3 1 Z " fill="#464663" transform="translate(160,300)"/>
<path d="M0 0 C0.99 0.495 0.99 0.495 2 1 C1.01 1.495 1.01 1.495 0 2 C0 1.34 0 0.68 0 0 Z " fill="#6E6E8A" transform="translate(345,272)"/>
<path d="M0 0 C3 1 3 1 3 1 Z " fill="#8D8DAA" transform="translate(351,271)"/>
<path d="M0 0 C0.33 0.66 0.66 1.32 1 2 C0.34 1.67 -0.32 1.34 -1 1 C-0.67 0.67 -0.34 0.34 0 0 Z " fill="#5F5F8A" transform="translate(440,39)"/>
<path d="M0 0 C3 1 3 1 3 1 Z " fill="#AA7FAA" transform="translate(327,33)"/>
<path d="M0 0 C3 1 3 1 3 1 Z " fill="#5F5F8A" transform="translate(391,18)"/>
<path d="" fill="#0000A0" transform="translate(0,0)"/>
<path d="M0 0 C2 1 2 1 2 1 Z " fill="#3F3F3F" transform="translate(198,309)"/>
<path d="M0 0 C2 1 2 1 2 1 Z " fill="#8F8FCF" transform="translate(355,302)"/>
<path d="M0 0 C2 1 2 1 2 1 Z " fill="#3F3F3F" transform="translate(163,302)"/>
<path d="M0 0 C2 1 2 1 2 1 Z " fill="#0000CF" transform="translate(167,301)"/>
<path d="M0 0 C2 1 2 1 2 1 Z " fill="#3F3F7F" transform="translate(376,299)"/>
<path d="M0 0 C2 1 2 1 2 1 Z " fill="#3F3F3F" transform="translate(152,299)"/>
<path d="M0 0 C2 1 2 1 2 1 Z " fill="#3F3F3F" transform="translate(142,298)"/>
<path d="M0 0 C2 1 2 1 2 1 Z " fill="#3F3F3F" transform="translate(222,288)"/>
<path d="M0 0 C2 1 2 1 2 1 Z " fill="#3F3F3F" transform="translate(215,278)"/>
<path d="M0 0 C2 1 2 1 2 1 Z " fill="#5000CF" transform="translate(172,271)"/>
<path d="M0 0 C2 1 2 1 2 1 Z " fill="#3F3F3F" transform="translate(157,268)"/>
<path d="M0 0 C2 1 2 1 2 1 Z " fill="#3F3F7F" transform="translate(370,267)"/>
<path d="M0 0 C2 1 2 1 2 1 Z " fill="#7F3F7F" transform="translate(382,266)"/>
<path d="M0 0 C2 1 2 1 2 1 Z " fill="#CFCFCF" transform="translate(400,264)"/>
<path d="M0 0 C2 1 2 1 2 1 Z " fill="#7F3F7F" transform="translate(407,263)"/>
<path d="M0 0 C2 1 2 1 2 1 Z " fill="#33339C" transform="translate(116,263)"/>
<path d="M0 0 C2 1 2 1 2 1 Z " fill="#3F3F3F" transform="translate(159,262)"/>
<path d="M0 0 C2 1 2 1 2 1 Z " fill="#CFCFCF" transform="translate(371,261)"/>
<path d="M0 0 C2 1 2 1 2 1 Z " fill="#7F3F7F" transform="translate(376,260)"/>
<path d="M0 0 C2 1 2 1 2 1 Z " fill="#8F3F8F" transform="translate(133,258)"/>
<path d="M0 0 C2 1 2 1 2 1 Z " fill="#CF00CF" transform="translate(118,257)"/>
<path d="" fill="#A0A0A0" transform="translate(0,0)"/>
<path d="" fill="#A0A0A0" transform="translate(0,0)"/>
<path d="M0 0 C2 1 2 1 2 1 Z " fill="#3F3F7F" transform="translate(271,63)"/>
<path d="M0 0 C2 1 2 1 2 1 Z " fill="#3F3F7F" transform="translate(456,41)"/>
<path d="M0 0 C2 1 2 1 2 1 Z " fill="#7F3F7F" transform="translate(311,39)"/>
<path d="M0 0 C2 1 2 1 2 1 Z " fill="#CFCFCF" transform="translate(364,23)"/>
<path d="M0 0 C2 1 2 1 2 1 Z " fill="#3F3F3F" transform="translate(114,16)"/>
<path d="M0 0 C2 1 2 1 2 1 Z " fill="#552A55" transform="translate(101,15)"/>
<path d="" fill="#0000A0" transform="translate(0,0)"/>
<path d="" fill="#0000A0" transform="translate(0,0)"/>
<path d="" fill="#A0A0A0" transform="translate(0,0)"/>
<path d="" fill="#A000A0" transform="translate(0,0)"/>
<path d="" fill="#A0A0A0" transform="translate(0,0)"/>
<path d="" fill="#A000A0" transform="translate(0,0)"/>
<path d="" fill="#A000A0" transform="translate(0,0)"/>
<path d="" fill="#A000A0" transform="translate(0,0)"/>
<path d="" fill="#0000A0" transform="translate(0,0)"/>
<path d="" fill="#A000A0" transform="translate(0,0)"/>
<path d="" fill="#0000A0" transform="translate(0,0)"/>
<path d="" fill="#A0A0A0" transform="translate(0,0)"/>
<path d="" fill="#0000A0" transform="translate(0,0)"/>
<path d="" fill="#A0A0A0" transform="translate(0,0)"/>
<path d="" fill="#A000A0" transform="translate(0,0)"/>
<path d="" fill="#A0A0A0" transform="translate(0,0)"/>
<path d="" fill="#A000A0" transform="translate(0,0)"/>
<path d="" fill="#A000A0" transform="translate(0,0)"/>
<path d="" fill="#A0A0A0" transform="translate(0,0)"/>
<path d="" fill="#A000A0" transform="translate(0,0)"/>
<path d="" fill="#A000A0" transform="translate(0,0)"/>
<path d="" fill="#A000A0" transform="translate(0,0)"/>
<path d="" fill="#A0A0A0" transform="translate(0,0)"/>
<path d="" fill="#A000A0" transform="translate(0,0)"/>
<path d="" fill="#A0A0A0" transform="translate(0,0)"/>
<path d="" fill="#A0A0A0" transform="translate(0,0)"/>
<path d="" fill="#A0A0A0" transform="translate(0,0)"/>
<path d="" fill="#A0A0A0" transform="translate(0,0)"/>
<path d="" fill="#A0A0A0" transform="translate(0,0)"/>
<path d="" fill="#A000A0" transform="translate(0,0)"/>
<path d="" fill="#A0A0A0" transform="translate(0,0)"/>
<path d="" fill="#0000A0" transform="translate(0,0)"/>
<path d="" fill="#A0A0A0" transform="translate(0,0)"/>
<path d="" fill="#A0A0A0" transform="translate(0,0)"/>
<path d="" fill="#A000A0" transform="translate(0,0)"/>
<path d="" fill="#A0A0A0" transform="translate(0,0)"/>
<path d="" fill="#A0A0A0" transform="translate(0,0)"/>
<path d="" fill="#A0A0A0" transform="translate(0,0)"/>
<path d="" fill="#A0A0A0" transform="translate(0,0)"/>
<path d="" fill="#A0A0A0" transform="translate(0,0)"/>
<path d="" fill="#A0A0A0" transform="translate(0,0)"/>
<path d="" fill="#A0A0A0" transform="translate(0,0)"/>
<path d="" fill="#A0A0A0" transform="translate(0,0)"/>
<path d="" fill="#A0A0A0" transform="translate(0,0)"/>
<path d="" fill="#A0A0A0" transform="translate(0,0)"/>
<path d="" fill="#A0A0A0" transform="translate(0,0)"/>
<path d="" fill="#A0A0A0" transform="translate(0,0)"/>
<path d="" fill="#A0A0A0" transform="translate(0,0)"/>
<path d="" fill="#A0A0A0" transform="translate(0,0)"/>
<path d="" fill="#A0A0A0" transform="translate(0,0)"/>
<path d="" fill="#A000A0" transform="translate(0,0)"/>
<path d="" fill="#A0A0A0" transform="translate(0,0)"/>
<path d="" fill="#A000A0" transform="translate(0,0)"/>
<path d="" fill="#A0A0A0" transform="translate(0,0)"/>
<path d="" fill="#A0A0A0" transform="translate(0,0)"/>
<path d="" fill="#A0A0A0" transform="translate(0,0)"/>
<path d="" fill="#A0A0A0" transform="translate(0,0)"/>
<path d="" fill="#0000A0" transform="translate(0,0)"/>
<path d="" fill="#A000A0" transform="translate(0,0)"/>
<path d="" fill="#A000A0" transform="translate(0,0)"/>
<path d="" fill="#A000A0" transform="translate(0,0)"/>
<path d="" fill="#A0A0A0" transform="translate(0,0)"/>
<path d="" fill="#A000A0" transform="translate(0,0)"/>
</svg>
